<svg id="my-svg" width="100%" xmlns="http://www.w3.org/2000/svg" xmlns:xlink="http://www.w3.org/1999/xlink" class="classDiagram" style="max-width: 427.242px; background-color: white;" viewBox="0 0 427.2421875 136" role="graphics-document document" aria-roledescription="class" aria-labelledby="chart-title-my-svg"><title id="chart-title-my-svg">Class hierarchy of other types</title><style>#my-svg{font-family:"trebuchet ms",verdana,arial,sans-serif;font-size:16px;fill:#000000;}@keyframes edge-animation-frame{from{stroke-dashoffset:0;}}@keyframes dash{to{stroke-dashoffset:0;}}#my-svg .edge-animation-slow{stroke-dasharray:9,5!important;stroke-dashoffset:900;animation:dash 50s linear infinite;stroke-linecap:round;}#my-svg .edge-animation-fast{stroke-dasharray:9,5!important;stroke-dashoffset:900;animation:dash 20s linear infinite;stroke-linecap:round;}#my-svg .error-icon{fill:#552222;}#my-svg .error-text{fill:#552222;stroke:#552222;}#my-svg .edge-thickness-normal{stroke-width:1px;}#my-svg .edge-thickness-thick{stroke-width:3.5px;}#my-svg .edge-pattern-solid{stroke-dasharray:0;}#my-svg .edge-thickness-invisible{stroke-width:0;fill:none;}#my-svg .edge-pattern-dashed{stroke-dasharray:3;}#my-svg .edge-pattern-dotted{stroke-dasharray:2;}#my-svg .marker{fill:#666;stroke:#666;}#my-svg .marker.cross{stroke:#666;}#my-svg svg{font-family:"trebuchet ms",verdana,arial,sans-serif;font-size:16px;}#my-svg p{margin:0;}#my-svg g.classGroup text{fill:#999;stroke:none;font-family:"trebuchet ms",verdana,arial,sans-serif;font-size:10px;}#my-svg g.classGroup text .title{font-weight:bolder;}#my-svg .nodeLabel,#my-svg .edgeLabel{color:#111111;}#my-svg .edgeLabel .label rect{fill:#eee;}#my-svg .label text{fill:#111111;}#my-svg .labelBkg{background:#eee;}#my-svg .edgeLabel .label span{background:#eee;}#my-svg .classTitle{font-weight:bolder;}#my-svg .node rect,#my-svg .node circle,#my-svg .node ellipse,#my-svg .node polygon,#my-svg .node path{fill:#eee;stroke:#999;stroke-width:1px;}#my-svg .divider{stroke:#999;stroke-width:1;}#my-svg g.clickable{cursor:pointer;}#my-svg g.classGroup rect{fill:#eee;stroke:#999;}#my-svg g.classGroup line{stroke:#999;stroke-width:1;}#my-svg .classLabel .box{stroke:none;stroke-width:0;fill:#eee;opacity:0.5;}#my-svg .classLabel .label{fill:#999;font-size:10px;}#my-svg .relation{stroke:#666;stroke-width:1;fill:none;}#my-svg .dashed-line{stroke-dasharray:3;}#my-svg .dotted-line{stroke-dasharray:1 2;}#my-svg #compositionStart,#my-svg .composition{fill:#666!important;stroke:#666!important;stroke-width:1;}#my-svg #compositionEnd,#my-svg .composition{fill:#666!important;stroke:#666!important;stroke-width:1;}#my-svg #dependencyStart,#my-svg .dependency{fill:#666!important;stroke:#666!important;stroke-width:1;}#my-svg #dependencyStart,#my-svg .dependency{fill:#666!important;stroke:#666!important;stroke-width:1;}#my-svg #extensionStart,#my-svg .extension{fill:transparent!important;stroke:#666!important;stroke-width:1;}#my-svg #extensionEnd,#my-svg .extension{fill:transparent!important;stroke:#666!important;stroke-width:1;}#my-svg #aggregationStart,#my-svg .aggregation{fill:transparent!important;stroke:#666!important;stroke-width:1;}#my-svg #aggregationEnd,#my-svg .aggregation{fill:transparent!important;stroke:#666!important;stroke-width:1;}#my-svg #lollipopStart,#my-svg .lollipop{fill:#eee!important;stroke:#666!important;stroke-width:1;}#my-svg #lollipopEnd,#my-svg .lollipop{fill:#eee!important;stroke:#666!important;stroke-width:1;}#my-svg .edgeTerminals{font-size:11px;line-height:initial;}#my-svg .classTitleText{text-anchor:middle;font-size:18px;fill:#000000;}#my-svg .label-icon{display:inline-block;height:1em;overflow:visible;vertical-align:-0.125em;}#my-svg .node .label-icon path{fill:currentColor;stroke:revert;stroke-width:revert;}#my-svg :root{--mermaid-font-family:"trebuchet ms",verdana,arial,sans-serif;}</style><g><defs><marker id="my-svg_class-aggregationStart" class="marker aggregation class" refX="18" refY="7" markerWidth="190" markerHeight="240" orient="auto"><path d="M 18,7 L9,13 L1,7 L9,1 Z"/></marker></defs><defs><marker id="my-svg_class-aggregationEnd" class="marker aggregation class" refX="1" refY="7" markerWidth="20" markerHeight="28" orient="auto"><path d="M 18,7 L9,13 L1,7 L9,1 Z"/></marker></defs><defs><marker id="my-svg_class-extensionStart" class="marker extension class" refX="18" refY="7" markerWidth="190" markerHeight="240" orient="auto"><path d="M 1,7 L18,13 V 1 Z"/></marker></defs><defs><marker id="my-svg_class-extensionEnd" class="marker extension class" refX="1" refY="7" markerWidth="20" markerHeight="28" orient="auto"><path d="M 1,1 V 13 L18,7 Z"/></marker></defs><defs><marker id="my-svg_class-compositionStart" class="marker composition class" refX="18" refY="7" markerWidth="190" markerHeight="240" orient="auto"><path d="M 18,7 L9,13 L1,7 L9,1 Z"/></marker></defs><defs><marker id="my-svg_class-compositionEnd" class="marker composition class" refX="1" refY="7" markerWidth="20" markerHeight="28" orient="auto"><path d="M 18,7 L9,13 L1,7 L9,1 Z"/></marker></defs><defs><marker id="my-svg_class-dependencyStart" class="marker dependency class" refX="6" refY="7" markerWidth="190" markerHeight="240" orient="auto"><path d="M 5,7 L9,13 L1,7 L9,1 Z"/></marker></defs><defs><marker id="my-svg_class-dependencyEnd" class="marker dependency class" refX="13" refY="7" markerWidth="20" markerHeight="28" orient="auto"><path d="M 18,7 L9,13 L14,7 L9,1 Z"/></marker></defs><defs><marker id="my-svg_class-lollipopStart" class="marker lollipop class" refX="13" refY="7" markerWidth="190" markerHeight="240" orient="auto"><circle stroke="black" fill="transparent" cx="7" cy="7" r="6"/></marker></defs><defs><marker id="my-svg_class-lollipopEnd" class="marker lollipop class" refX="1" refY="7" markerWidth="190" markerHeight="240" orient="auto"><circle stroke="black" fill="transparent" cx="7" cy="7" r="6"/></marker></defs><g class="root"><g class="clusters"/><g class="edgePaths"/><g class="edgeLabels"/><g class="nodes"><g class="node default" id="classId-Hashable-0" transform="translate(62.4765625, 68)"><g class="basic label-container"><path d="M-54.4765625 -60 L54.4765625 -60 L54.4765625 60 L-54.4765625 60" stroke="none" stroke-width="0" fill="#eee" style=""/><path d="M-54.4765625 -60 C-19.698211597245958 -60, 15.080139305508084 -60, 54.4765625 -60 M-54.4765625 -60 C-29.62038680518709 -60, -4.764211110374177 -60, 54.4765625 -60 M54.4765625 -60 C54.4765625 -23.41604206691683, 54.4765625 13.16791586616634, 54.4765625 60 M54.4765625 -60 C54.4765625 -31.853848959674142, 54.4765625 -3.707697919348284, 54.4765625 60 M54.4765625 60 C11.874564069033731 60, -30.727434361932538 60, -54.4765625 60 M54.4765625 60 C24.323884093600466 60, -5.828794312799069 60, -54.4765625 60 M-54.4765625 60 C-54.4765625 21.17427216925742, -54.4765625 -17.65145566148516, -54.4765625 -60 M-54.4765625 60 C-54.4765625 22.270551141162272, -54.4765625 -15.458897717675455, -54.4765625 -60" stroke="#999" stroke-width="1.3" fill="none" stroke-dasharray="0 0" style=""/></g><g class="annotation-group text" transform="translate(0, -36)"/><g class="label-group text" transform="translate(-41.84375, -36)"><g class="label" style="font-weight: bolder" transform="translate(0,-12)"><foreignObject width="83.6875" height="24"><div xmlns="http://www.w3.org/1999/xhtml" style="display: table-cell; white-space: nowrap; line-height: 1.5; max-width: 124px; text-align: center;"><span class="nodeLabel markdown-node-label" style=""><p>Hashable</p></span></div></foreignObject></g></g><g class="members-group text" transform="translate(-42.4765625, 12)"><g class="label" style="" transform="translate(0,-12)"><foreignObject width="43.109375" height="24"><div xmlns="http://www.w3.org/1999/xhtml" style="display: table-cell; white-space: nowrap; line-height: 1.5; max-width: 122px; text-align: center;"><span class="nodeLabel markdown-node-label" style=""><p><strong>hash</strong></p></span></div></foreignObject></g></g><g class="methods-group text" transform="translate(-42.4765625, 60)"/><g class="divider" style=""><path d="M-54.4765625 -12 C-11.22231983748383 -12, 32.03192282503234 -12, 54.4765625 -12 M-54.4765625 -12 C-14.820997759100798 -12, 24.834566981798403 -12, 54.4765625 -12" stroke="#999" stroke-width="1.3" fill="none" stroke-dasharray="0 0" style=""/></g><g class="divider" style=""><path d="M-54.4765625 36 C-26.737763421194998 36, 1.0010356576100037 36, 54.4765625 36 M-54.4765625 36 C-12.298949488257954 36, 29.878663523484093 36, 54.4765625 36" stroke="#999" stroke-width="1.3" fill="none" stroke-dasharray="0 0" style=""/></g></g><g class="node default" id="classId-Callable-1" transform="translate(215, 68)"><g class="basic label-container"><path d="M-48.046875 -60 L48.046875 -60 L48.046875 60 L-48.046875 60" stroke="none" stroke-width="0" fill="#eee" style=""/><path d="M-48.046875 -60 C-10.019913229927603 -60, 28.007048540144794 -60, 48.046875 -60 M-48.046875 -60 C-14.26098438095287 -60, 19.52490623809426 -60, 48.046875 -60 M48.046875 -60 C48.046875 -26.561269779816456, 48.046875 6.877460440367088, 48.046875 60 M48.046875 -60 C48.046875 -32.383031510292135, 48.046875 -4.766063020584269, 48.046875 60 M48.046875 60 C24.72731974940154 60, 1.4077644988030826 60, -48.046875 60 M48.046875 60 C17.394872115231436 60, -13.257130769537127 60, -48.046875 60 M-48.046875 60 C-48.046875 25.87184464486714, -48.046875 -8.256310710265723, -48.046875 -60 M-48.046875 60 C-48.046875 26.417646112464247, -48.046875 -7.164707775071506, -48.046875 -60" stroke="#999" stroke-width="1.3" fill="none" stroke-dasharray="0 0" style=""/></g><g class="annotation-group text" transform="translate(0, -36)"/><g class="label-group text" transform="translate(-36.046875, -36)"><g class="label" style="font-weight: bolder" transform="translate(0,-12)"><foreignObject width="72.09375" height="24"><div xmlns="http://www.w3.org/1999/xhtml" style="display: table-cell; white-space: nowrap; line-height: 1.5; max-width: 113px; text-align: center;"><span class="nodeLabel markdown-node-label" style=""><p>Callable</p></span></div></foreignObject></g></g><g class="members-group text" transform="translate(-36.046875, 12)"><g class="label" style="" transform="translate(0,-12)"><foreignObject width="31.25" height="24"><div xmlns="http://www.w3.org/1999/xhtml" style="display: table-cell; white-space: nowrap; line-height: 1.5; max-width: 111px; text-align: center;"><span class="nodeLabel markdown-node-label" style=""><p><strong>call</strong></p></span></div></foreignObject></g></g><g class="methods-group text" transform="translate(-36.046875, 60)"/><g class="divider" style=""><path d="M-48.046875 -12 C-11.405370656992815 -12, 25.23613368601437 -12, 48.046875 -12 M-48.046875 -12 C-13.627480182535514 -12, 20.791914634928972 -12, 48.046875 -12" stroke="#999" stroke-width="1.3" fill="none" stroke-dasharray="0 0" style=""/></g><g class="divider" style=""><path d="M-48.046875 36 C-27.401111292086714 36, -6.755347584173428 36, 48.046875 36 M-48.046875 36 C-14.90686264477214 36, 18.23314971045572 36, 48.046875 36" stroke="#999" stroke-width="1.3" fill="none" stroke-dasharray="0 0" style=""/></g></g><g class="node default" id="classId-Buffer-2" transform="translate(366.14453125, 68)"><g class="basic label-container"><path d="M-53.09765625 -60 L53.09765625 -60 L53.09765625 60 L-53.09765625 60" stroke="none" stroke-width="0" fill="#eee" style=""/><path d="M-53.09765625 -60 C-14.177673786577486 -60, 24.742308676845028 -60, 53.09765625 -60 M-53.09765625 -60 C-14.61916803195652 -60, 23.85932018608696 -60, 53.09765625 -60 M53.09765625 -60 C53.09765625 -21.55220373047822, 53.09765625 16.895592539043562, 53.09765625 60 M53.09765625 -60 C53.09765625 -23.34766888949578, 53.09765625 13.304662221008442, 53.09765625 60 M53.09765625 60 C12.60326014570304 60, -27.89113595859392 60, -53.09765625 60 M53.09765625 60 C16.235848519171206 60, -20.625959211657587 60, -53.09765625 60 M-53.09765625 60 C-53.09765625 35.63105638233628, -53.09765625 11.262112764672565, -53.09765625 -60 M-53.09765625 60 C-53.09765625 19.9789292070282, -53.09765625 -20.042141585943597, -53.09765625 -60" stroke="#999" stroke-width="1.3" fill="none" stroke-dasharray="0 0" style=""/></g><g class="annotation-group text" transform="translate(0, -36)"/><g class="label-group text" transform="translate(-27.6484375, -36)"><g class="label" style="font-weight: bolder" transform="translate(0,-12)"><foreignObject width="55.296875" height="24"><div xmlns="http://www.w3.org/1999/xhtml" style="display: table-cell; white-space: nowrap; line-height: 1.5; max-width: 99px; text-align: center;"><span class="nodeLabel markdown-node-label" style=""><p>Buffer</p></span></div></foreignObject></g></g><g class="members-group text" transform="translate(-41.09765625, 12)"><g class="label" style="" transform="translate(0,-12)"><foreignObject width="54.546875" height="24"><div xmlns="http://www.w3.org/1999/xhtml" style="display: table-cell; white-space: nowrap; line-height: 1.5; max-width: 132px; text-align: center;"><span class="nodeLabel markdown-node-label" style=""><p><strong>buffer</strong></p></span></div></foreignObject></g></g><g class="methods-group text" transform="translate(-41.09765625, 60)"/><g class="divider" style=""><path d="M-53.09765625 -12 C-30.97391398071711 -12, -8.850171711434221 -12, 53.09765625 -12 M-53.09765625 -12 C-23.556546592961986 -12, 5.984563064076028 -12, 53.09765625 -12" stroke="#999" stroke-width="1.3" fill="none" stroke-dasharray="0 0" style=""/></g><g class="divider" style=""><path d="M-53.09765625 36 C-21.364895099946793 36, 10.367866050106414 36, 53.09765625 36 M-53.09765625 36 C-30.934238649193986 36, -8.770821048387972 36, 53.09765625 36" stroke="#999" stroke-width="1.3" fill="none" stroke-dasharray="0 0" style=""/></g></g></g></g></g></svg>